<svg width="98" height="30" viewBox="0 0 98 30" fill="none" xmlns="http://www.w3.org/2000/svg">
<path d="M3.35276e-06 29.16L5.652 1.43051e-06H12.24L17.856 29.16H12.348L11.304 22.752H6.696L5.58 29.16H3.35276e-06ZM7.236 19.116H10.728L8.964 7.344L7.236 19.116ZM20.5591 29.16V8.352H25.9951V11.7C26.6911 10.476 27.3751 9.576 28.0471 9C28.7431 8.4 29.5591 8.1 30.4951 8.1C30.6631 8.1 30.8071 8.112 30.9271 8.136C31.0711 8.136 31.2031 8.16 31.3231 8.208V13.68C31.0591 13.56 30.7591 13.464 30.4231 13.392C30.0871 13.296 29.7391 13.248 29.3791 13.248C28.7071 13.248 28.0951 13.428 27.5431 13.788C26.9911 14.124 26.4751 14.616 25.9951 15.264V29.16H20.5591ZM40.3273 29.52C38.7913 29.52 37.5073 29.232 36.4753 28.656C35.4433 28.056 34.6633 27.216 34.1353 26.136C33.6313 25.056 33.3793 23.772 33.3793 22.284V15.264C33.3793 13.704 33.6313 12.396 34.1353 11.34C34.6633 10.26 35.4433 9.432 36.4753 8.856C37.5073 8.28 38.7913 7.992 40.3273 7.992C41.8153 7.992 43.0633 8.232 44.0713 8.712C45.0793 9.168 45.8233 9.864 46.3033 10.8C46.8073 11.736 47.0593 12.912 47.0593 14.328V16.308H41.8753V14.184C41.8753 13.56 41.8153 13.08 41.6953 12.744C41.5993 12.384 41.4313 12.132 41.1913 11.988C40.9753 11.844 40.6873 11.772 40.3273 11.772C39.9673 11.772 39.6793 11.868 39.4633 12.06C39.2473 12.228 39.0913 12.528 38.9953 12.96C38.8993 13.368 38.8513 13.944 38.8513 14.688V22.86C38.8513 23.988 38.9713 24.756 39.2113 25.164C39.4753 25.548 39.8593 25.74 40.3633 25.74C40.7473 25.74 41.0473 25.656 41.2633 25.488C41.4793 25.32 41.6353 25.056 41.7313 24.696C41.8273 24.336 41.8753 23.88 41.8753 23.328V20.808H47.0593V23.076C47.0593 24.468 46.8073 25.656 46.3033 26.64C45.7993 27.6 45.0433 28.32 44.0353 28.8C43.0273 29.28 41.7913 29.52 40.3273 29.52Z" fill="#303030"/>
<path d="M54.3693 29.52C53.3853 29.52 52.5333 29.268 51.8133 28.764C51.1173 28.26 50.5893 27.624 50.2293 26.856C49.8693 26.088 49.6893 25.296 49.6893 24.48C49.6893 23.184 49.9413 22.092 50.4453 21.204C50.9493 20.316 51.6093 19.572 52.4253 18.972C53.2413 18.372 54.1533 17.856 55.1613 17.424C56.1693 16.992 57.1773 16.596 58.1853 16.236V14.292C58.1853 13.836 58.1493 13.44 58.0773 13.104C58.0053 12.768 57.8613 12.516 57.6453 12.348C57.4533 12.156 57.1653 12.06 56.7813 12.06C56.3973 12.06 56.0973 12.144 55.8813 12.312C55.6893 12.456 55.5453 12.684 55.4493 12.996C55.3773 13.284 55.3293 13.608 55.3053 13.968L55.1973 15.408L50.0493 15.192C50.1693 12.744 50.8053 10.932 51.9573 9.756C53.1333 8.58 54.8973 7.992 57.2493 7.992C59.3613 7.992 60.9213 8.58 61.9293 9.756C62.9373 10.908 63.4413 12.432 63.4413 14.328V24.012C63.4413 24.828 63.4533 25.56 63.4773 26.208C63.5253 26.832 63.5733 27.396 63.6213 27.9C63.6933 28.38 63.7533 28.8 63.8013 29.16H58.9053C58.8333 28.632 58.7493 28.056 58.6533 27.432C58.5573 26.808 58.4853 26.388 58.4373 26.172C58.1973 27.036 57.7413 27.816 57.0693 28.512C56.3973 29.184 55.4973 29.52 54.3693 29.52ZM56.3493 25.668C56.6133 25.668 56.8653 25.608 57.1053 25.488C57.3453 25.368 57.5493 25.212 57.7173 25.02C57.9093 24.828 58.0653 24.648 58.1853 24.48V18.756C57.6813 19.068 57.2133 19.38 56.7813 19.692C56.3493 19.98 55.9773 20.304 55.6653 20.664C55.3533 21.024 55.1133 21.42 54.9453 21.852C54.7773 22.284 54.6933 22.776 54.6933 23.328C54.6933 24.048 54.8373 24.624 55.1253 25.056C55.4133 25.464 55.8213 25.668 56.3493 25.668ZM66.9637 29.16V8.352H72.3997V10.44C73.1437 9.696 73.9237 9.108 74.7397 8.676C75.5797 8.22 76.4677 7.992 77.4037 7.992C78.2677 7.992 78.9637 8.208 79.4917 8.64C80.0437 9.072 80.4517 9.648 80.7157 10.368C80.9797 11.064 81.1117 11.856 81.1117 12.744V29.16H75.7117V13.644C75.7117 13.068 75.6157 12.636 75.4237 12.348C75.2557 12.06 74.9197 11.916 74.4157 11.916C74.1277 11.916 73.8037 12 73.4437 12.168C73.1077 12.312 72.7597 12.516 72.3997 12.78V29.16H66.9637ZM91.2696 29.52C89.7336 29.52 88.4496 29.244 87.4176 28.692C86.3856 28.116 85.6056 27.288 85.0776 26.208C84.5496 25.104 84.2856 23.784 84.2856 22.248V15.264C84.2856 13.68 84.5496 12.36 85.0776 11.304C85.6056 10.224 86.3976 9.408 87.4536 8.856C88.5096 8.28 89.7816 7.992 91.2696 7.992C92.8536 7.992 94.1376 8.28 95.1216 8.856C96.1056 9.432 96.8256 10.272 97.2816 11.376C97.7616 12.48 98.0016 13.824 98.0016 15.408V19.044H89.6496V23.076C89.6496 23.676 89.7096 24.168 89.8296 24.552C89.9736 24.936 90.1656 25.212 90.4056 25.38C90.6456 25.524 90.9456 25.596 91.3056 25.596C91.6416 25.596 91.9296 25.524 92.1696 25.38C92.4336 25.212 92.6256 24.96 92.7456 24.624C92.8656 24.288 92.9256 23.844 92.9256 23.292V21.312H97.9656V23.04C97.9656 25.152 97.3896 26.76 96.2376 27.864C95.0856 28.968 93.4296 29.52 91.2696 29.52ZM89.6496 16.452H92.9256V14.4C92.9256 13.8 92.8656 13.32 92.7456 12.96C92.6256 12.576 92.4336 12.312 92.1696 12.168C91.9296 12 91.6176 11.916 91.2336 11.916C90.8736 11.916 90.5736 12 90.3336 12.168C90.1176 12.336 89.9496 12.636 89.8296 13.068C89.7096 13.476 89.6496 14.064 89.6496 14.832V16.452Z" fill="#909090"/>
</svg>
